<svg xmlns="http://www.w3.org/2000/svg" width="46.6" height="54.4">
  <path fill="#fff" d="M24.6 40.4c-.6.2-1 .9-1.3.9-.3-.1-.7-.8-1.3-.9-1.5-.5-2.5 1.3-4 2.9 0 0 1.4 2.3 2.8 3 1 .4 1.8.2 2.4.1.7.2 1.5.4 2.4-.1 1.4-.6 2.8-3 2.8-3-1.3-1.6-2.3-3.4-3.8-2.9z"/>
  <path fill="#fff" d="M39.9 15.4H24.6v-4.7c2.9-.7 4.8-3.6 4.1-6.5S25.1-.6 22.2.1c-2.9.7-4.8 3.6-4.1 6.5.5 1.9 1.9 3.5 3.8 4v4.7H6.7C3 15.3 0 18.3 0 22v25.6c0 3.7 3 6.7 6.7 6.7h33.2c3.7 0 6.7-3 6.7-6.7V22.1c0-3.7-3-6.7-6.7-6.7zM20.6 5.5c0-1.5 1.2-2.7 2.7-2.7S26 4 26 5.5c0 1.5-1.2 2.7-2.7 2.7S20.6 7 20.6 5.5zm23.5 42.2c0 2.3-1.9 4.2-4.2 4.2H6.7c-2.3 0-4.2-1.9-4.2-4.2V22.1c0-2.3 1.9-4.2 4.2-4.2h33.2c2.3 0 4.2 1.9 4.2 4.2v25.6z"/>
  <path fill="#fff" d="M12.8 34.7c1.7 0 3-1.4 3-3H9.7c0 1.6 1.4 3 3.1 3zm21.2 0c1.7 0 3-1.4 3-3h-6.1c0 1.6 1.4 3 3.1 3z"/>
</svg>