<svg xmlns="http://www.w3.org/2000/svg" width="104" height="104">
  <path d="M92 104H12c-6.6 0-12-5.4-12-12V12C0 5.4 5.4 0 12 0h80c6.6 0 12 5.4 12 12v80c0 6.6-5.4 12-12 12z" fill="#fff"/>
  <path fill="#4555a5" d="M0 36.3v48.8c.3.1.7.1 1 .1h48c3.3 0 6-2.7 6-6v-37c0-3.3-2.7-6-6-6H1c-.3 0-.7.1-1 .1zM44.8 56c0 2.4-2 4.4-4.4 4.4S36 58.5 36 56h8.8zM23.3 68.6c.8.3 1.4 1.2 1.8 1.4.5-.1 1-1.1 1.8-1.4 2.1-.7 3.6 1.9 5.7 4.1 0 0-2 3.4-4 4.3-1.4.6-2.5.3-3.5.1-1 .3-2.1.5-3.5-.1-2.1-.9-4-4.3-4-4.3 2.2-2.2 3.6-4.8 5.7-4.1zM14.2 56c0 2.4-2 4.4-4.4 4.4s-4.4-2-4.4-4.4h8.8z"/>
  <path fill="#4555a5" d="M92 0H12C5.4 0 0 5.4 0 12v20.7c.3 0 .7-.1 1-.1h22v-6.8c-2.8-.8-4.8-3.1-5.5-5.8-1-4.2 1.7-8.5 5.9-9.5s8.5 1.7 9.5 5.9-1.7 8.5-5.9 9.5v6.7h22c5.3 0 9.6 4.3 9.6 9.6v37c0 5.3-4.3 9.6-9.6 9.6H1c-.3 0-.7 0-1-.1V92c0 6.6 5.4 12 12 12h80c6.6 0 12-5.4 12-12V12c0-6.6-5.4-12-12-12zM66.9 70c-.4.3-.7.3-1 .3-.6 0-1.1-.3-1.4-.7-.5-.8-.3-1.9.4-2.4 2-1.4 3.2-3.7 3.2-6.2 0-2.6-1.3-5-3.6-6.4-.8-.5-1.1-1.6-.6-2.4.3-.5.9-.8 1.5-.8.3 0 .6.1.9.3 3.3 2 5.3 5.5 5.3 9.4.1 3.5-1.7 6.9-4.7 8.9zm7.9 11.4c-.3.2-.6.3-1 .3-.6 0-1.1-.3-1.4-.7-.5-.8-.3-1.9.4-2.4C78.6 74.6 82 68 82 61c0-7.5-3.8-14.3-10.2-18.2-.8-.5-1.1-1.6-.6-2.4.3-.5.9-.8 1.5-.8.3 0 .6.1.9.3 3.6 2.2 6.6 5.3 8.7 8.9 2.1 3.7 3.2 8 3.2 12.3 0 8-4 15.7-10.7 20.3zm7.9 11.4c-.4.3-.7.3-1 .3-.6 0-1.1-.3-1.4-.7-.5-.8-.3-1.9.4-2.4 9.5-6.6 15.2-17.4 15.2-29 0-12.4-6.3-23.6-16.9-30.1-.8-.5-1.1-1.6-.6-2.4.3-.5.9-.8 1.5-.8.3 0 .6.1.9.3 5.6 3.4 10.2 8.2 13.5 13.9 3.3 5.8 5.1 12.4 5.1 19.1 0 12.7-6.3 24.6-16.7 31.8z"/>
  <path fill="#4555a5" d="M29.1 18.2c0-2.2-1.8-3.9-3.9-3.9-2.2 0-3.9 1.8-3.9 3.9s1.8 3.9 3.9 3.9c2.1.1 3.9-1.7 3.9-3.9z"/>
</svg>